<svg width="38" height="46" viewBox="0 0 38 46" fill="none" xmlns="http://www.w3.org/2000/svg">
<path fill-rule="evenodd" clip-rule="evenodd" d="M1.00006 11.971L1 40.1987C1 42.9245 3.20976 45.1343 5.93564 45.1343H32.6228C35.3486 45.1343 37.5584 42.9245 37.5584 40.1987L37.5585 5.15415C37.5585 2.42827 35.3487 0.218508 32.6228 0.218506H12.7526L1.00006 11.971Z" fill="url(#paint0_linear_1503_484)"/>
<rect x="5.59558" y="25.1187" width="27.3673" height="15.5135" rx="3" fill="white"/>
<path d="M14.8281 30.8805L15.8467 30.0741C15.6981 29.8831 15.5178 29.7134 15.3056 29.5648C15.0934 29.4269 14.8599 29.3102 14.6265 29.2147C14.3825 29.1192 14.1278 29.0449 13.8732 29.0025C13.608 28.9601 13.3533 28.9282 13.1199 28.9282C12.5363 28.9282 11.9952 29.0237 11.5072 29.2041C11.0085 29.3951 10.5735 29.6497 10.2128 29.9892C9.85201 30.3287 9.56554 30.7425 9.35334 31.2306C9.14114 31.7187 9.04565 32.2598 9.04565 32.8539C9.04565 33.4481 9.14114 33.9786 9.34273 34.4666C9.53371 34.9547 9.80957 35.3685 10.1703 35.7186C10.5204 36.0688 10.9448 36.3446 11.4329 36.5356C11.921 36.7266 12.4621 36.8221 13.0562 36.8221C13.6928 36.8221 14.2552 36.716 14.7432 36.4825C15.2207 36.2491 15.6239 35.9308 15.9634 35.5064L14.8918 34.7531C14.7008 35.0184 14.4461 35.2306 14.1385 35.3897C13.8202 35.5489 13.47 35.6231 13.0668 35.6231C12.6743 35.6231 12.3241 35.5595 12.0165 35.4215C11.6982 35.2942 11.4329 35.1032 11.2101 34.8592C10.9873 34.6152 10.8175 34.3181 10.7008 33.9786C10.5735 33.6391 10.5204 33.2677 10.5204 32.8539C10.5204 32.472 10.5735 32.1112 10.7008 31.7717C10.8281 31.4428 10.9979 31.1563 11.2313 30.9017C11.4647 30.6577 11.7406 30.4667 12.0589 30.3181C12.3772 30.1802 12.7273 30.1059 13.1199 30.1059C13.417 30.1059 13.7353 30.1696 14.0536 30.2969C14.3719 30.4242 14.6265 30.6152 14.8281 30.8805Z" fill="url(#paint1_linear_1503_484)"/>
<path d="M20.8858 30.6895L21.7558 29.7346C21.4587 29.4693 21.1192 29.2677 20.7266 29.1298C20.334 29.0025 19.9521 28.9282 19.5701 28.9282C19.2306 28.9282 18.8911 28.9813 18.5622 29.0662C18.2333 29.151 17.9362 29.289 17.6815 29.4693C17.4269 29.6497 17.2147 29.8725 17.0556 30.1484C16.8964 30.4242 16.8221 30.7531 16.8221 31.1351C16.8221 31.4958 16.8752 31.7929 16.9919 32.0263C17.098 32.2598 17.2465 32.4614 17.4269 32.6205C17.6073 32.7903 17.8089 32.9176 18.0423 33.0131C18.2651 33.1192 18.4879 33.2041 18.7213 33.2677L19.3898 33.4905C19.602 33.5648 19.7823 33.6497 19.9415 33.7452C20.09 33.8407 20.2173 33.9574 20.3128 34.0847C20.3977 34.212 20.4508 34.3818 20.4508 34.5727C20.4508 34.7849 20.4083 34.9547 20.3234 35.0926C20.2386 35.2306 20.1325 35.3473 20.0051 35.4322C19.8778 35.5276 19.7293 35.5913 19.5701 35.6337C19.4004 35.6762 19.2412 35.6868 19.0927 35.6868C18.7956 35.6868 18.4879 35.6125 18.1802 35.464C17.8725 35.3154 17.6285 35.1139 17.4481 34.8592L16.4932 35.7505C16.7903 36.1112 17.1723 36.3764 17.6391 36.5568C18.1059 36.7372 18.5834 36.8221 19.0715 36.8221C19.4322 36.8221 19.7823 36.7796 20.1218 36.6735C20.4508 36.578 20.7372 36.4295 20.9919 36.2279C21.2359 36.0369 21.4375 35.7823 21.586 35.4852C21.7346 35.1881 21.8088 34.8274 21.8088 34.4242C21.8088 34.0635 21.7346 33.7558 21.5966 33.5011C21.4587 33.2571 21.2783 33.0555 21.0661 32.8858C20.8539 32.7266 20.6099 32.5993 20.3553 32.4932C20.1006 32.3977 19.846 32.3128 19.6126 32.2279C19.4004 32.1643 19.1988 32.1006 19.029 32.037C18.8486 31.9733 18.7001 31.899 18.5728 31.8141C18.4455 31.7293 18.35 31.6338 18.2863 31.5065C18.212 31.3897 18.1802 31.2412 18.1802 31.0714C18.1802 30.8911 18.212 30.7319 18.2969 30.6046C18.3818 30.4773 18.4879 30.3712 18.6152 30.2863C18.7425 30.2014 18.8805 30.1484 19.0396 30.1059C19.1882 30.0635 19.3473 30.0423 19.5065 30.0423C19.7611 30.0423 20.0264 30.1059 20.281 30.2333C20.5356 30.3606 20.7372 30.5091 20.8858 30.6895Z" fill="url(#paint2_linear_1503_484)"/>
<path d="M22.3722 29.1192L25.343 36.6311H26.4995L29.5128 29.1192H28.0698L25.9796 34.9017H25.9372L23.8683 29.1192H22.3722Z" fill="url(#paint3_linear_1503_484)"/>
<path fill-rule="evenodd" clip-rule="evenodd" d="M0.943882 11.9062L12.7476 0.102513L12.7499 0.113668L12.7499 6.97061C12.7499 9.69649 10.5401 11.9062 7.81424 11.9062L0.943882 11.9062Z" fill="url(#paint4_linear_1503_484)"/>
<defs>
<linearGradient id="paint0_linear_1503_484" x1="19.2792" y1="0.218506" x2="19.2792" y2="45.1343" gradientUnits="userSpaceOnUse">
<stop stop-color="#00B8F0"/>
<stop offset="0.0001" stop-color="#00B8F0"/>
<stop offset="0.739583" stop-color="#B2EEFC"/>
</linearGradient>
<linearGradient id="paint1_linear_1503_484" x1="19.2792" y1="28.9282" x2="19.2792" y2="36.8221" gradientUnits="userSpaceOnUse">
<stop stop-color="#F86CA2"/>
<stop offset="1" stop-color="#FA9EC2"/>
</linearGradient>
<linearGradient id="paint2_linear_1503_484" x1="19.2792" y1="28.9282" x2="19.2792" y2="36.8221" gradientUnits="userSpaceOnUse">
<stop stop-color="#F86CA2"/>
<stop offset="1" stop-color="#FA9EC2"/>
</linearGradient>
<linearGradient id="paint3_linear_1503_484" x1="19.2792" y1="28.9282" x2="19.2792" y2="36.8221" gradientUnits="userSpaceOnUse">
<stop stop-color="#F86CA2"/>
<stop offset="1" stop-color="#FA9EC2"/>
</linearGradient>
<linearGradient id="paint4_linear_1503_484" x1="6.84685" y1="11.9062" x2="6.84685" y2="0.102459" gradientUnits="userSpaceOnUse">
<stop stop-color="#1792C7"/>
<stop offset="1" stop-color="#00B8F0"/>
</linearGradient>
</defs>
</svg>
